<mxfile host="app.diagrams.net" agent="Mozilla/5.0 (Windows NT 10.0; Win64; x64; rv:134.0) Gecko/20100101 Firefox/134.0" version="26.0.7">
  <diagram name="Страница — 1" id="0VDd6HWyuDkhmlakwKvJ">
    <mxGraphModel dx="3218" dy="1106" grid="1" gridSize="10" guides="1" tooltips="1" connect="1" arrows="1" fold="1" page="1" pageScale="1" pageWidth="827" pageHeight="1169" math="0" shadow="0">
      <root>
        <mxCell id="0" />
        <mxCell id="1" parent="0" />
        <mxCell id="gPP1iTlo6FLZJjChbTKV-55" style="edgeStyle=orthogonalEdgeStyle;rounded=0;orthogonalLoop=1;jettySize=auto;html=1;entryX=0.5;entryY=0;entryDx=0;entryDy=0;" edge="1" parent="1" source="gPP1iTlo6FLZJjChbTKV-56" target="gPP1iTlo6FLZJjChbTKV-58">
          <mxGeometry relative="1" as="geometry" />
        </mxCell>
        <mxCell id="gPP1iTlo6FLZJjChbTKV-56" value="" style="shape=ellipse;html=1;dashed=0;whiteSpace=wrap;aspect=fixed;strokeWidth=5;perimeter=ellipsePerimeter;fillColor=#000000;" vertex="1" parent="1">
          <mxGeometry x="-558" y="40" width="30" height="30" as="geometry" />
        </mxCell>
        <mxCell id="gPP1iTlo6FLZJjChbTKV-57" value="" style="edgeStyle=orthogonalEdgeStyle;rounded=0;orthogonalLoop=1;jettySize=auto;html=1;" edge="1" parent="1" source="gPP1iTlo6FLZJjChbTKV-58" target="gPP1iTlo6FLZJjChbTKV-63">
          <mxGeometry relative="1" as="geometry">
            <mxPoint x="-543" y="260" as="targetPoint" />
          </mxGeometry>
        </mxCell>
        <mxCell id="gPP1iTlo6FLZJjChbTKV-58" value="Сообщение создано" style="rounded=1;whiteSpace=wrap;html=1;" vertex="1" parent="1">
          <mxGeometry x="-603" y="120" width="120" height="60" as="geometry" />
        </mxCell>
        <mxCell id="gPP1iTlo6FLZJjChbTKV-59" value="&lt;span style=&quot;color: rgb(0, 0, 0); font-family: Helvetica; font-size: 12px; font-style: normal; font-variant-ligatures: normal; font-variant-caps: normal; font-weight: 400; letter-spacing: normal; orphans: 2; text-align: center; text-indent: 0px; text-transform: none; widows: 2; word-spacing: 0px; -webkit-text-stroke-width: 0px; white-space: normal; background-color: rgb(251, 251, 251); text-decoration-thickness: initial; text-decoration-style: initial; text-decoration-color: initial; display: inline !important; float: none;&quot;&gt;Создание нового сообщения&lt;/span&gt;" style="text;whiteSpace=wrap;html=1;" vertex="1" parent="1">
          <mxGeometry x="-535" y="80" width="190" height="40" as="geometry" />
        </mxCell>
        <mxCell id="gPP1iTlo6FLZJjChbTKV-60" value="Отправка сообщения" style="text;html=1;align=center;verticalAlign=middle;resizable=0;points=[];autosize=1;strokeColor=none;fillColor=none;" vertex="1" parent="1">
          <mxGeometry x="-545" y="208" width="140" height="30" as="geometry" />
        </mxCell>
        <mxCell id="gPP1iTlo6FLZJjChbTKV-61" value="" style="edgeStyle=orthogonalEdgeStyle;rounded=0;orthogonalLoop=1;jettySize=auto;html=1;" edge="1" parent="1" source="gPP1iTlo6FLZJjChbTKV-63" target="gPP1iTlo6FLZJjChbTKV-65">
          <mxGeometry relative="1" as="geometry" />
        </mxCell>
        <mxCell id="gPP1iTlo6FLZJjChbTKV-62" value="" style="edgeStyle=orthogonalEdgeStyle;rounded=0;orthogonalLoop=1;jettySize=auto;html=1;" edge="1" parent="1" source="gPP1iTlo6FLZJjChbTKV-63" target="gPP1iTlo6FLZJjChbTKV-72">
          <mxGeometry relative="1" as="geometry" />
        </mxCell>
        <mxCell id="gPP1iTlo6FLZJjChbTKV-63" value="Сообщение&amp;nbsp;&lt;div&gt;отправлено?&lt;/div&gt;" style="html=1;whiteSpace=wrap;aspect=fixed;shape=isoRectangle;" vertex="1" parent="1">
          <mxGeometry x="-618" y="290" width="150" height="90" as="geometry" />
        </mxCell>
        <mxCell id="gPP1iTlo6FLZJjChbTKV-64" value="" style="edgeStyle=orthogonalEdgeStyle;rounded=0;orthogonalLoop=1;jettySize=auto;html=1;" edge="1" parent="1" source="gPP1iTlo6FLZJjChbTKV-65" target="gPP1iTlo6FLZJjChbTKV-77">
          <mxGeometry relative="1" as="geometry" />
        </mxCell>
        <mxCell id="gPP1iTlo6FLZJjChbTKV-65" value="Сообщение отправлено" style="rounded=1;whiteSpace=wrap;html=1;" vertex="1" parent="1">
          <mxGeometry x="-775" y="550" width="120" height="60" as="geometry" />
        </mxCell>
        <mxCell id="gPP1iTlo6FLZJjChbTKV-66" value="" style="shape=ellipse;html=1;dashed=0;whiteSpace=wrap;aspect=fixed;strokeWidth=5;perimeter=ellipsePerimeter;" vertex="1" parent="1">
          <mxGeometry x="-115" y="600" width="50" height="50" as="geometry" />
        </mxCell>
        <mxCell id="gPP1iTlo6FLZJjChbTKV-67" value="Попытка отправки" style="text;html=1;align=center;verticalAlign=middle;resizable=0;points=[];autosize=1;strokeColor=none;fillColor=none;" vertex="1" parent="1">
          <mxGeometry x="-295" y="305" width="130" height="30" as="geometry" />
        </mxCell>
        <mxCell id="gPP1iTlo6FLZJjChbTKV-68" value="" style="edgeStyle=orthogonalEdgeStyle;rounded=0;orthogonalLoop=1;jettySize=auto;html=1;" edge="1" parent="1" source="gPP1iTlo6FLZJjChbTKV-70" target="gPP1iTlo6FLZJjChbTKV-58">
          <mxGeometry relative="1" as="geometry">
            <Array as="points">
              <mxPoint x="-90" y="140" />
            </Array>
          </mxGeometry>
        </mxCell>
        <mxCell id="gPP1iTlo6FLZJjChbTKV-69" value="" style="edgeStyle=orthogonalEdgeStyle;rounded=0;orthogonalLoop=1;jettySize=auto;html=1;" edge="1" parent="1" source="gPP1iTlo6FLZJjChbTKV-70" target="gPP1iTlo6FLZJjChbTKV-74">
          <mxGeometry relative="1" as="geometry" />
        </mxCell>
        <mxCell id="gPP1iTlo6FLZJjChbTKV-70" value="3 попытки?" style="html=1;whiteSpace=wrap;aspect=fixed;shape=isoRectangle;" vertex="1" parent="1">
          <mxGeometry x="-165" y="290" width="150" height="90" as="geometry" />
        </mxCell>
        <mxCell id="gPP1iTlo6FLZJjChbTKV-71" value="" style="edgeStyle=orthogonalEdgeStyle;rounded=0;orthogonalLoop=1;jettySize=auto;html=1;" edge="1" parent="1" source="gPP1iTlo6FLZJjChbTKV-72" target="gPP1iTlo6FLZJjChbTKV-70">
          <mxGeometry relative="1" as="geometry" />
        </mxCell>
        <mxCell id="gPP1iTlo6FLZJjChbTKV-72" value="Повторная отправка" style="rounded=1;whiteSpace=wrap;html=1;" vertex="1" parent="1">
          <mxGeometry x="-425" y="305" width="120" height="60" as="geometry" />
        </mxCell>
        <mxCell id="gPP1iTlo6FLZJjChbTKV-73" value="" style="edgeStyle=orthogonalEdgeStyle;rounded=0;orthogonalLoop=1;jettySize=auto;html=1;" edge="1" parent="1" source="gPP1iTlo6FLZJjChbTKV-74" target="gPP1iTlo6FLZJjChbTKV-66">
          <mxGeometry relative="1" as="geometry" />
        </mxCell>
        <mxCell id="gPP1iTlo6FLZJjChbTKV-74" value="Не отправлено" style="rounded=1;whiteSpace=wrap;html=1;" vertex="1" parent="1">
          <mxGeometry x="-150" y="475" width="120" height="60" as="geometry" />
        </mxCell>
        <mxCell id="gPP1iTlo6FLZJjChbTKV-75" value="" style="edgeStyle=orthogonalEdgeStyle;rounded=0;orthogonalLoop=1;jettySize=auto;html=1;" edge="1" parent="1" source="gPP1iTlo6FLZJjChbTKV-77" target="gPP1iTlo6FLZJjChbTKV-80">
          <mxGeometry relative="1" as="geometry" />
        </mxCell>
        <mxCell id="gPP1iTlo6FLZJjChbTKV-76" value="" style="edgeStyle=orthogonalEdgeStyle;rounded=0;orthogonalLoop=1;jettySize=auto;html=1;" edge="1" parent="1" source="gPP1iTlo6FLZJjChbTKV-77" target="gPP1iTlo6FLZJjChbTKV-83">
          <mxGeometry relative="1" as="geometry" />
        </mxCell>
        <mxCell id="gPP1iTlo6FLZJjChbTKV-77" value="Сообщение&amp;nbsp;&lt;div&gt;доставлено?&lt;/div&gt;" style="html=1;whiteSpace=wrap;aspect=fixed;shape=isoRectangle;" vertex="1" parent="1">
          <mxGeometry x="-790" y="840" width="150" height="90" as="geometry" />
        </mxCell>
        <mxCell id="gPP1iTlo6FLZJjChbTKV-78" value="" style="shape=ellipse;html=1;dashed=0;whiteSpace=wrap;aspect=fixed;strokeWidth=5;perimeter=ellipsePerimeter;" vertex="1" parent="1">
          <mxGeometry x="-740" y="1080" width="50" height="50" as="geometry" />
        </mxCell>
        <mxCell id="gPP1iTlo6FLZJjChbTKV-79" value="" style="edgeStyle=orthogonalEdgeStyle;rounded=0;orthogonalLoop=1;jettySize=auto;html=1;entryX=1;entryY=0.5;entryDx=0;entryDy=0;" edge="1" parent="1" source="gPP1iTlo6FLZJjChbTKV-80" target="gPP1iTlo6FLZJjChbTKV-65">
          <mxGeometry relative="1" as="geometry">
            <mxPoint x="-248.5" y="840" as="sourcePoint" />
            <Array as="points">
              <mxPoint x="-505" y="580" />
            </Array>
          </mxGeometry>
        </mxCell>
        <mxCell id="gPP1iTlo6FLZJjChbTKV-80" value="Повторная проверка доставки" style="rounded=1;whiteSpace=wrap;html=1;" vertex="1" parent="1">
          <mxGeometry x="-583.5" y="855" width="120" height="60" as="geometry" />
        </mxCell>
        <mxCell id="gPP1iTlo6FLZJjChbTKV-81" value="Доставка сообщения" style="text;html=1;align=center;verticalAlign=middle;resizable=0;points=[];autosize=1;strokeColor=none;fillColor=none;" vertex="1" parent="1">
          <mxGeometry x="-715" y="710" width="140" height="30" as="geometry" />
        </mxCell>
        <mxCell id="gPP1iTlo6FLZJjChbTKV-82" value="" style="edgeStyle=orthogonalEdgeStyle;rounded=0;orthogonalLoop=1;jettySize=auto;html=1;" edge="1" parent="1" source="gPP1iTlo6FLZJjChbTKV-83" target="gPP1iTlo6FLZJjChbTKV-78">
          <mxGeometry relative="1" as="geometry" />
        </mxCell>
        <mxCell id="gPP1iTlo6FLZJjChbTKV-83" value="Сообщение доставлено" style="rounded=1;whiteSpace=wrap;html=1;" vertex="1" parent="1">
          <mxGeometry x="-775" y="970" width="120" height="60" as="geometry" />
        </mxCell>
      </root>
    </mxGraphModel>
  </diagram>
</mxfile>
